<?xml version="1.0" encoding="utf-8"?>
<!-- Generator: Adobe Illustrator 16.0.4, SVG Export Plug-In . SVG Version: 6.00 Build 0)  -->
<!DOCTYPE svg PUBLIC "-//W3C//DTD SVG 1.1//EN" "http://www.w3.org/Graphics/SVG/1.1/DTD/svg11.dtd">
<svg version="1.1" id="Warstwa_1" xmlns="http://www.w3.org/2000/svg" xmlns:xlink="http://www.w3.org/1999/xlink" x="0px" y="0px"
	 width="425.667px" height="274.667px" viewBox="0 0 425.667 274.667" enable-background="new 0 0 425.667 274.667"
	 xml:space="preserve">
<path fill="none" stroke="#8E8D8D" stroke-width="4" stroke-miterlimit="10" d="M58.154,19.872c320,124,293,134,0,247.999"/>
<text transform="matrix(1 0 0 1 77.8203 19)" font-family="'MyriadPro-Regular'" font-size="17">1. Problem Understanding</text>
<text transform="matrix(1 0 0 1 150.8203 47.7007)" font-family="'MyriadPro-Regular'" font-size="17">2. Feature Selection</text>
<text transform="matrix(1 0 0 1 219.1533 76.4019)" font-family="'MyriadPro-Regular'" font-size="17">3. Feature Engineering</text>
<text transform="matrix(1 0 0 1 270.1533 105.1025)" font-family="'MyriadPro-Regular'" font-size="17">4. Model Tuning</text>
<ellipse cx="70.064" cy="24.103" rx="6.423" ry="5.102"/>
<ellipse cx="261.064" cy="110.205" rx="6.423" ry="5.102"/>
<ellipse cx="206.73" cy="81.504" rx="6.423" ry="5.102"/>
<ellipse cx="139.821" cy="52.803" rx="6.423" ry="5.102"/>
<text transform="matrix(1 0 0 1 247.8203 205.769)" font-family="'MyriadPro-Regular'" font-size="17">5. Model Validation</text>
<text transform="matrix(1 0 0 1 189.9868 235.4355)" font-family="'MyriadPro-Regular'" font-size="17">6. Model Deployment</text>
<text transform="matrix(1 0 0 1 120.1538 264.769)" font-family="'MyriadPro-Regular'" font-size="17">7. Model Maintenance</text>
<ellipse cx="241.397" cy="190.769" rx="6.423" ry="5.102"/>
<ellipse cx="113.731" cy="245.816" rx="6.423" ry="5.101"/>
<ellipse cx="183.564" cy="218.292" rx="6.423" ry="5.103"/>
<polygon points="293.568,139.732 292.524,144.607 296.856,147.074 292.113,148.609 292.141,153.594 288.441,150.253 
	284.138,152.771 285.181,147.896 280.85,145.428 285.593,143.894 285.564,138.908 289.265,142.25 "/>
<text transform="matrix(1 0 0 1 298.8203 143.8716)"><tspan x="0" y="0" font-family="'MyriadPro-Regular'" font-size="14">We have </tspan><tspan x="0" y="11.8" font-family="'MyriadPro-Regular'" font-size="14">a new model</tspan></text>
</svg>
